<svg width="148" height="43" viewBox="0 0 148 43" fill="none" xmlns="http://www.w3.org/2000/svg">
<rect width="148" height="43" rx="4" fill="#F2F2F2"/>
<g clip-path="url(#clip0_25_745)">
<path d="M27.1166 29.0168C26.3833 29.2335 25.5166 29.3335 24.5 29.3335H19.5C18.4833 29.3335 17.6166 29.2335 16.8833 29.0168C17.0666 26.8502 19.2916 25.1418 22 25.1418C24.7083 25.1418 26.9333 26.8502 27.1166 29.0168V29.0168Z" stroke="#828282" stroke-width="1.5" stroke-linecap="round" stroke-linejoin="round"/>
<path d="M24.4998 12.6667H19.4998C15.3332 12.6667 13.6665 14.3334 13.6665 18.5001V23.5001C13.6665 26.6501 14.6165 28.3751 16.8832 29.0167C17.0665 26.8501 19.2915 25.1417 21.9998 25.1417C24.7082 25.1417 26.9332 26.8501 27.1165 29.0167C29.3832 28.3751 30.3332 26.6501 30.3332 23.5001V18.5001C30.3332 14.3334 28.6665 12.6667 24.4998 12.6667ZM21.9998 22.8084C20.3498 22.8084 19.0165 21.4667 19.0165 19.8167C19.0165 18.1667 20.3498 16.8334 21.9998 16.8334C23.6498 16.8334 24.9832 18.1667 24.9832 19.8167C24.9832 21.4667 23.6498 22.8084 21.9998 22.8084Z" stroke="#828282" stroke-width="1.5" stroke-linecap="round" stroke-linejoin="round"/>
<path d="M24.9833 19.8168C24.9833 21.4668 23.6499 22.8085 21.9999 22.8085C20.3499 22.8085 19.0166 21.4668 19.0166 19.8168C19.0166 18.1668 20.3499 16.8335 21.9999 16.8335C23.6499 16.8335 24.9833 18.1668 24.9833 19.8168Z" stroke="#828282" stroke-width="1.5" stroke-linecap="round" stroke-linejoin="round"/>
</g>
<path d="M46.862 25.63C46.0473 25.63 45.341 25.4523 44.743 25.097C44.1537 24.733 43.6943 24.2217 43.365 23.563C43.0443 22.9043 42.884 22.12 42.884 21.21C42.884 20.3 43.053 19.5157 43.391 18.857C43.7377 18.1983 44.2187 17.6913 44.834 17.336C45.4493 16.972 46.1557 16.79 46.953 16.79C47.8023 16.79 48.4913 16.9503 49.02 17.271C49.5573 17.5917 49.9907 18.0857 50.32 18.753L49.371 19.273C49.1803 18.779 48.877 18.4063 48.461 18.155C48.0537 17.895 47.551 17.765 46.953 17.765C46.3723 17.765 45.8567 17.9037 45.406 18.181C44.964 18.4497 44.613 18.844 44.353 19.364C44.1017 19.8753 43.976 20.4907 43.976 21.21C43.976 21.9293 44.0843 22.549 44.301 23.069C44.5263 23.5803 44.8557 23.9747 45.289 24.252C45.731 24.5207 46.2683 24.655 46.901 24.655C47.2563 24.655 47.5857 24.6117 47.889 24.525C48.201 24.4297 48.4697 24.291 48.695 24.109C48.929 23.927 49.111 23.6973 49.241 23.42C49.371 23.1427 49.436 22.8177 49.436 22.445V22.146H46.706V21.171H50.385V25.5H49.566L49.514 23.901L49.735 23.94C49.5097 24.4773 49.1543 24.8933 48.669 25.188C48.1837 25.4827 47.5813 25.63 46.862 25.63ZM54.7092 25.63C54.2932 25.63 53.8989 25.552 53.5262 25.396C53.1622 25.24 52.8632 24.9887 52.6292 24.642C52.4039 24.2867 52.2912 23.8273 52.2912 23.264V19H53.3312V22.991C53.3312 23.6497 53.4742 24.1047 53.7602 24.356C54.0462 24.5987 54.4492 24.72 54.9692 24.72C55.2119 24.72 55.4502 24.681 55.6842 24.603C55.9182 24.5163 56.1262 24.3863 56.3082 24.213C56.4989 24.031 56.6462 23.8013 56.7502 23.524C56.8629 23.2467 56.9192 22.9173 56.9192 22.536V19H57.9592V25.5H57.0492L56.9842 24.512C56.7589 24.902 56.4512 25.188 56.0612 25.37C55.6799 25.5433 55.2292 25.63 54.7092 25.63ZM62.8367 25.63C62.2213 25.63 61.671 25.4957 61.1857 25.227C60.709 24.9583 60.3363 24.5727 60.0677 24.07C59.799 23.5587 59.6647 22.952 59.6647 22.25C59.6647 21.548 59.799 20.9457 60.0677 20.443C60.3363 19.9317 60.7047 19.5417 61.1727 19.273C61.6407 19.0043 62.1737 18.87 62.7717 18.87C63.3783 18.87 63.894 19 64.3187 19.26C64.752 19.52 65.0813 19.8753 65.3067 20.326C65.532 20.768 65.6447 21.2663 65.6447 21.821C65.6447 21.9683 65.6403 22.1027 65.6317 22.224C65.623 22.3453 65.61 22.4537 65.5927 22.549H60.3407V21.626H65.1377L64.6047 21.73C64.6047 21.106 64.4313 20.625 64.0847 20.287C63.7467 19.949 63.3003 19.78 62.7457 19.78C62.321 19.78 61.9527 19.8797 61.6407 20.079C61.3373 20.2697 61.099 20.5513 60.9257 20.924C60.761 21.288 60.6787 21.73 60.6787 22.25C60.6787 22.7613 60.7653 23.2033 60.9387 23.576C61.112 23.9487 61.3547 24.2347 61.6667 24.434C61.9873 24.6247 62.3687 24.72 62.8107 24.72C63.2873 24.72 63.673 24.629 63.9677 24.447C64.271 24.265 64.5137 24.018 64.6957 23.706L65.5147 24.187C65.35 24.4817 65.1377 24.7373 64.8777 24.954C64.6263 25.1707 64.3273 25.3397 63.9807 25.461C63.6427 25.5737 63.2613 25.63 62.8367 25.63ZM69.7026 25.63C69.0699 25.63 68.4849 25.4957 67.9476 25.227C67.4189 24.9583 67.0116 24.577 66.7256 24.083L67.6096 23.446C67.8003 23.8447 68.0776 24.1567 68.4416 24.382C68.8143 24.6073 69.2606 24.72 69.7806 24.72C70.2399 24.72 70.5996 24.6333 70.8596 24.46C71.1196 24.278 71.2496 24.044 71.2496 23.758C71.2496 23.576 71.1889 23.4113 71.0676 23.264C70.9549 23.108 70.7339 22.9953 70.4046 22.926L68.8446 22.601C68.2119 22.471 67.7569 22.2543 67.4796 21.951C67.2109 21.6477 67.0766 21.2707 67.0766 20.82C67.0766 20.4647 67.1763 20.1397 67.3756 19.845C67.5836 19.5503 67.8739 19.3163 68.2466 19.143C68.6279 18.961 69.0743 18.87 69.5856 18.87C70.2269 18.87 70.7686 18.9957 71.2106 19.247C71.6526 19.4983 71.9819 19.8537 72.1986 20.313L71.3276 20.885C71.1803 20.5037 70.9419 20.2263 70.6126 20.053C70.2833 19.871 69.9409 19.78 69.5856 19.78C69.2736 19.78 69.0049 19.8233 68.7796 19.91C68.5629 19.9967 68.3939 20.118 68.2726 20.274C68.1599 20.4213 68.1036 20.5903 68.1036 20.781C68.1036 20.9717 68.1686 21.1493 68.2986 21.314C68.4286 21.47 68.6713 21.5827 69.0266 21.652L70.6516 21.99C71.2583 22.1113 71.6829 22.3107 71.9256 22.588C72.1683 22.8653 72.2896 23.2033 72.2896 23.602C72.2896 24.0093 72.1813 24.369 71.9646 24.681C71.7479 24.9843 71.4446 25.2183 71.0546 25.383C70.6646 25.5477 70.2139 25.63 69.7026 25.63ZM75.4921 17.154V23.706C75.4921 24.0267 75.5831 24.265 75.7651 24.421C75.9471 24.577 76.1811 24.655 76.4671 24.655C76.7184 24.655 76.9351 24.6117 77.1171 24.525C77.2991 24.4383 77.4637 24.3213 77.6111 24.174L77.9751 25.045C77.7757 25.227 77.5374 25.37 77.2601 25.474C76.9914 25.578 76.6794 25.63 76.3241 25.63C75.9947 25.63 75.6871 25.5737 75.4011 25.461C75.1151 25.3397 74.8854 25.1533 74.7121 24.902C74.5474 24.642 74.4607 24.304 74.4521 23.888V17.44L75.4921 17.154ZM77.8581 19V19.897H73.1521V19H77.8581ZM81.4844 25.63C80.8517 25.63 80.2667 25.4957 79.7294 25.227C79.2007 24.9583 78.7934 24.577 78.5074 24.083L79.3914 23.446C79.582 23.8447 79.8594 24.1567 80.2234 24.382C80.596 24.6073 81.0424 24.72 81.5624 24.72C82.0217 24.72 82.3814 24.6333 82.6414 24.46C82.9014 24.278 83.0314 24.044 83.0314 23.758C83.0314 23.576 82.9707 23.4113 82.8494 23.264C82.7367 23.108 82.5157 22.9953 82.1864 22.926L80.6264 22.601C79.9937 22.471 79.5387 22.2543 79.2614 21.951C78.9927 21.6477 78.8584 21.2707 78.8584 20.82C78.8584 20.4647 78.958 20.1397 79.1574 19.845C79.3654 19.5503 79.6557 19.3163 80.0284 19.143C80.4097 18.961 80.856 18.87 81.3674 18.87C82.0087 18.87 82.5504 18.9957 82.9924 19.247C83.4344 19.4983 83.7637 19.8537 83.9804 20.313L83.1094 20.885C82.962 20.5037 82.7237 20.2263 82.3944 20.053C82.065 19.871 81.7227 19.78 81.3674 19.78C81.0554 19.78 80.7867 19.8233 80.5614 19.91C80.3447 19.9967 80.1757 20.118 80.0544 20.274C79.9417 20.4213 79.8854 20.5903 79.8854 20.781C79.8854 20.9717 79.9504 21.1493 80.0804 21.314C80.2104 21.47 80.453 21.5827 80.8084 21.652L82.4334 21.99C83.04 22.1113 83.4647 22.3107 83.7074 22.588C83.95 22.8653 84.0714 23.2033 84.0714 23.602C84.0714 24.0093 83.963 24.369 83.7464 24.681C83.5297 24.9843 83.2264 25.2183 82.8364 25.383C82.4464 25.5477 81.9957 25.63 81.4844 25.63Z" fill="#4F4F4F"/>
<defs>
<clipPath id="clip0_25_745">
<rect width="20" height="20" fill="white" transform="translate(12 11)"/>
</clipPath>
</defs>
</svg>
