<svg width="147" height="43" viewBox="0 0 147 43" fill="none" xmlns="http://www.w3.org/2000/svg">
<rect width="147" height="43" rx="4" fill="#F2F2F2"/>
<path d="M18.6665 12.6667V15.1667" stroke="#828282" stroke-width="1.5" stroke-miterlimit="10" stroke-linecap="round" stroke-linejoin="round"/>
<path d="M25.3335 12.6667V15.1667" stroke="#828282" stroke-width="1.5" stroke-miterlimit="10" stroke-linecap="round" stroke-linejoin="round"/>
<path d="M14.9165 18.5752H29.0832" stroke="#828282" stroke-width="1.5" stroke-miterlimit="10" stroke-linecap="round" stroke-linejoin="round"/>
<path d="M29.5 18.0834V25.1667C29.5 27.6667 28.25 29.3334 25.3333 29.3334H18.6667C15.75 29.3334 14.5 27.6667 14.5 25.1667V18.0834C14.5 15.5834 15.75 13.9167 18.6667 13.9167H25.3333C28.25 13.9167 29.5 15.5834 29.5 18.0834Z" stroke="#828282" stroke-width="1.5" stroke-miterlimit="10" stroke-linecap="round" stroke-linejoin="round"/>
<path d="M25.0791 22.4167H25.0866" stroke="#828282" stroke-width="2" stroke-linecap="round" stroke-linejoin="round"/>
<path d="M25.0791 24.9167H25.0866" stroke="#828282" stroke-width="2" stroke-linecap="round" stroke-linejoin="round"/>
<path d="M21.9956 22.4167H22.0039" stroke="#828282" stroke-width="2" stroke-linecap="round" stroke-linejoin="round"/>
<path d="M21.9956 24.9167H22.0039" stroke="#828282" stroke-width="2" stroke-linecap="round" stroke-linejoin="round"/>
<path d="M18.9116 22.4167H18.92" stroke="#828282" stroke-width="2" stroke-linecap="round" stroke-linejoin="round"/>
<path d="M18.9116 24.9167H18.92" stroke="#828282" stroke-width="2" stroke-linecap="round" stroke-linejoin="round"/>
<path d="M50.32 23.303C50.138 23.7883 49.878 24.2087 49.54 24.564C49.202 24.9107 48.8033 25.175 48.344 25.357C47.8933 25.539 47.3993 25.63 46.862 25.63C46.0473 25.63 45.341 25.4523 44.743 25.097C44.1537 24.733 43.6943 24.2217 43.365 23.563C43.0443 22.9043 42.884 22.12 42.884 21.21C42.884 20.3 43.0443 19.5157 43.365 18.857C43.6943 18.1983 44.1537 17.6913 44.743 17.336C45.341 16.972 46.0387 16.79 46.836 16.79C47.3907 16.79 47.8847 16.868 48.318 17.024C48.7513 17.1713 49.1197 17.3967 49.423 17.7C49.735 17.9947 49.982 18.3587 50.164 18.792L49.137 19.273C48.9463 18.779 48.669 18.4063 48.305 18.155C47.9497 17.895 47.486 17.765 46.914 17.765C46.3333 17.765 45.822 17.9037 45.38 18.181C44.938 18.4497 44.5913 18.8397 44.34 19.351C44.0973 19.8623 43.976 20.482 43.976 21.21C43.976 21.9293 44.093 22.549 44.327 23.069C44.561 23.5803 44.8947 23.9747 45.328 24.252C45.7613 24.5207 46.2727 24.655 46.862 24.655C47.434 24.655 47.9323 24.512 48.357 24.226C48.7817 23.9313 49.0893 23.4937 49.28 22.913L50.32 23.303ZM51.8611 25.5V16.01H52.9011V19.975C53.1264 19.585 53.4254 19.3033 53.7981 19.13C54.1708 18.9567 54.5781 18.87 55.0201 18.87C55.4881 18.87 55.9128 18.961 56.2941 19.143C56.6754 19.3163 56.9788 19.585 57.2041 19.949C57.4381 20.313 57.5551 20.7767 57.5551 21.34V25.5H56.5151V21.704C56.5151 20.9847 56.3591 20.4863 56.0471 20.209C55.7438 19.923 55.3668 19.78 54.9161 19.78C54.6041 19.78 54.2921 19.8537 53.9801 20.001C53.6681 20.1483 53.4081 20.391 53.2001 20.729C53.0008 21.0583 52.9011 21.5003 52.9011 22.055V25.5H51.8611ZM62.3669 25.63C61.7516 25.63 61.2013 25.4957 60.7159 25.227C60.2393 24.9583 59.8666 24.5727 59.5979 24.07C59.3293 23.5587 59.1949 22.952 59.1949 22.25C59.1949 21.548 59.3293 20.9457 59.5979 20.443C59.8666 19.9317 60.2349 19.5417 60.7029 19.273C61.1709 19.0043 61.7039 18.87 62.3019 18.87C62.9086 18.87 63.4243 19 63.8489 19.26C64.2823 19.52 64.6116 19.8753 64.8369 20.326C65.0623 20.768 65.1749 21.2663 65.1749 21.821C65.1749 21.9683 65.1706 22.1027 65.1619 22.224C65.1533 22.3453 65.1403 22.4537 65.1229 22.549H59.8709V21.626H64.6679L64.1349 21.73C64.1349 21.106 63.9616 20.625 63.6149 20.287C63.2769 19.949 62.8306 19.78 62.2759 19.78C61.8513 19.78 61.4829 19.8797 61.1709 20.079C60.8676 20.2697 60.6293 20.5513 60.4559 20.924C60.2913 21.288 60.2089 21.73 60.2089 22.25C60.2089 22.7613 60.2956 23.2033 60.4689 23.576C60.6423 23.9487 60.8849 24.2347 61.1969 24.434C61.5176 24.6247 61.8989 24.72 62.3409 24.72C62.8176 24.72 63.2033 24.629 63.4979 24.447C63.8013 24.265 64.0439 24.018 64.2259 23.706L65.0449 24.187C64.8803 24.4817 64.6679 24.7373 64.4079 24.954C64.1566 25.1707 63.8576 25.3397 63.5109 25.461C63.1729 25.5737 62.7916 25.63 62.3669 25.63ZM69.5839 18.87C70.0345 18.87 70.4289 18.9393 70.7669 19.078C71.1135 19.2167 71.4125 19.416 71.6639 19.676C71.9152 19.936 72.1189 20.2437 72.2749 20.599L71.2869 21.067C71.1482 20.651 70.9359 20.3347 70.6499 20.118C70.3725 19.8927 70.0085 19.78 69.5579 19.78C69.1245 19.78 68.7519 19.8797 68.4399 20.079C68.1279 20.2697 67.8895 20.5513 67.7249 20.924C67.5602 21.288 67.4779 21.73 67.4779 22.25C67.4779 22.7613 67.5602 23.2033 67.7249 23.576C67.8895 23.9487 68.1279 24.2347 68.4399 24.434C68.7519 24.6247 69.1245 24.72 69.5579 24.72C69.8959 24.72 70.1862 24.668 70.4289 24.564C70.6802 24.46 70.8839 24.3083 71.0399 24.109C71.2045 23.9097 71.3172 23.667 71.3779 23.381L72.3399 23.719C72.1925 24.1177 71.9889 24.46 71.7289 24.746C71.4775 25.032 71.1699 25.253 70.8059 25.409C70.4505 25.5563 70.0432 25.63 69.5839 25.63C68.9772 25.63 68.4355 25.4957 67.9589 25.227C67.4822 24.9583 67.1095 24.5727 66.8409 24.07C66.5722 23.5587 66.4379 22.952 66.4379 22.25C66.4379 21.548 66.5722 20.9457 66.8409 20.443C67.1095 19.9317 67.4822 19.5417 67.9589 19.273C68.4355 19.0043 68.9772 18.87 69.5839 18.87ZM79.6143 19L76.8063 21.808L76.5593 22.055L74.4273 24.187V22.887L78.3013 19H79.6143ZM74.9473 16.01V25.5H73.9073V16.01H74.9473ZM76.8973 21.275L79.7703 25.5H78.5093L76.0263 21.86L76.8973 21.275ZM85.4219 17.752C85.1879 17.752 84.9973 17.6827 84.8499 17.544C84.7113 17.3967 84.6419 17.206 84.6419 16.972C84.6419 16.738 84.7113 16.5517 84.8499 16.413C84.9973 16.2657 85.1879 16.192 85.4219 16.192C85.6559 16.192 85.8423 16.2657 85.9809 16.413C86.1283 16.5517 86.2019 16.738 86.2019 16.972C86.2019 17.206 86.1283 17.3967 85.9809 17.544C85.8423 17.6827 85.6559 17.752 85.4219 17.752ZM85.9419 19V25.5H84.9019V19H85.9419ZM88.0951 25.5V19H89.0051L89.0961 20.456L88.9271 20.313C89.0657 19.9663 89.2521 19.689 89.4861 19.481C89.7201 19.2643 89.9887 19.1083 90.2921 19.013C90.6041 18.9177 90.9247 18.87 91.2541 18.87C91.7221 18.87 92.1467 18.961 92.5281 19.143C92.9094 19.3163 93.2127 19.585 93.4381 19.949C93.6721 20.313 93.7891 20.7767 93.7891 21.34V25.5H92.7491V21.704C92.7491 20.9847 92.5931 20.4863 92.2811 20.209C91.9777 19.923 91.6007 19.78 91.1501 19.78C90.8381 19.78 90.5261 19.8537 90.2141 20.001C89.9021 20.1483 89.6421 20.3867 89.4341 20.716C89.2347 21.0453 89.1351 21.4873 89.1351 22.042V25.5H88.0951ZM102.59 25.63C102.052 25.63 101.558 25.4957 101.108 25.227C100.657 24.9583 100.297 24.5727 100.029 24.07C99.7599 23.5587 99.6255 22.952 99.6255 22.25C99.6255 21.5307 99.7685 20.9197 100.055 20.417C100.341 19.9143 100.718 19.533 101.186 19.273C101.654 19.0043 102.156 18.87 102.694 18.87C103.231 18.87 103.695 19.0087 104.085 19.286C104.483 19.5633 104.748 19.9317 104.878 20.391L104.748 20.482V16.01H105.788V25.5H104.878L104.787 23.927L104.93 23.849C104.869 24.2303 104.722 24.5553 104.488 24.824C104.262 25.084 103.981 25.2833 103.643 25.422C103.313 25.5607 102.962 25.63 102.59 25.63ZM102.694 24.72C103.11 24.72 103.469 24.616 103.773 24.408C104.085 24.2 104.323 23.9053 104.488 23.524C104.661 23.134 104.748 22.679 104.748 22.159C104.748 21.665 104.661 21.2403 104.488 20.885C104.323 20.5297 104.089 20.2567 103.786 20.066C103.491 19.8753 103.144 19.78 102.746 19.78C102.087 19.78 101.576 20.0053 101.212 20.456C100.848 20.9067 100.666 21.5047 100.666 22.25C100.666 22.9953 100.843 23.5933 101.199 24.044C101.554 24.4947 102.052 24.72 102.694 24.72ZM111.741 21.301C111.741 20.8157 111.611 20.443 111.351 20.183C111.091 19.9143 110.723 19.78 110.246 19.78C109.795 19.78 109.414 19.8797 109.102 20.079C108.79 20.2697 108.56 20.5817 108.413 21.015L107.568 20.495C107.741 20.0097 108.062 19.6197 108.53 19.325C108.998 19.0217 109.579 18.87 110.272 18.87C110.74 18.87 111.165 18.9523 111.546 19.117C111.927 19.273 112.226 19.5157 112.443 19.845C112.668 20.1657 112.781 20.5817 112.781 21.093V24.239C112.781 24.551 112.946 24.707 113.275 24.707C113.44 24.707 113.6 24.6853 113.756 24.642L113.704 25.461C113.531 25.5477 113.305 25.591 113.028 25.591C112.777 25.591 112.551 25.5433 112.352 25.448C112.153 25.3527 111.997 25.2097 111.884 25.019C111.771 24.8197 111.715 24.5727 111.715 24.278V24.148L111.975 24.187C111.871 24.525 111.693 24.8023 111.442 25.019C111.191 25.227 110.909 25.383 110.597 25.487C110.285 25.5823 109.977 25.63 109.674 25.63C109.293 25.63 108.937 25.565 108.608 25.435C108.279 25.305 108.014 25.11 107.815 24.85C107.624 24.5813 107.529 24.252 107.529 23.862C107.529 23.3767 107.689 22.978 108.01 22.666C108.339 22.3453 108.794 22.1287 109.375 22.016L111.949 21.509V22.367L109.856 22.796C109.431 22.8827 109.115 23.004 108.907 23.16C108.699 23.316 108.595 23.5327 108.595 23.81C108.595 24.0787 108.699 24.2997 108.907 24.473C109.124 24.6377 109.427 24.72 109.817 24.72C110.068 24.72 110.307 24.6897 110.532 24.629C110.766 24.5597 110.974 24.46 111.156 24.33C111.338 24.1913 111.481 24.0223 111.585 23.823C111.689 23.615 111.741 23.3723 111.741 23.095V21.301ZM116.328 17.154V23.706C116.328 24.0267 116.419 24.265 116.601 24.421C116.783 24.577 117.017 24.655 117.303 24.655C117.555 24.655 117.771 24.6117 117.953 24.525C118.135 24.4383 118.3 24.3213 118.447 24.174L118.811 25.045C118.612 25.227 118.374 25.37 118.096 25.474C117.828 25.578 117.516 25.63 117.16 25.63C116.831 25.63 116.523 25.5737 116.237 25.461C115.951 25.3397 115.722 25.1533 115.548 24.902C115.384 24.642 115.297 24.304 115.288 23.888V17.44L116.328 17.154ZM118.694 19V19.897H113.988V19H118.694ZM122.698 25.63C122.082 25.63 121.532 25.4957 121.047 25.227C120.57 24.9583 120.197 24.5727 119.929 24.07C119.66 23.5587 119.526 22.952 119.526 22.25C119.526 21.548 119.66 20.9457 119.929 20.443C120.197 19.9317 120.566 19.5417 121.034 19.273C121.502 19.0043 122.035 18.87 122.633 18.87C123.239 18.87 123.755 19 124.18 19.26C124.613 19.52 124.942 19.8753 125.168 20.326C125.393 20.768 125.506 21.2663 125.506 21.821C125.506 21.9683 125.501 22.1027 125.493 22.224C125.484 22.3453 125.471 22.4537 125.454 22.549H120.202V21.626H124.999L124.466 21.73C124.466 21.106 124.292 20.625 123.946 20.287C123.608 19.949 123.161 19.78 122.607 19.78C122.182 19.78 121.814 19.8797 121.502 20.079C121.198 20.2697 120.96 20.5513 120.787 20.924C120.622 21.288 120.54 21.73 120.54 22.25C120.54 22.7613 120.626 23.2033 120.8 23.576C120.973 23.9487 121.216 24.2347 121.528 24.434C121.848 24.6247 122.23 24.72 122.672 24.72C123.148 24.72 123.534 24.629 123.829 24.447C124.132 24.265 124.375 24.018 124.557 23.706L125.376 24.187C125.211 24.4817 124.999 24.7373 124.739 24.954C124.487 25.1707 124.188 25.3397 123.842 25.461C123.504 25.5737 123.122 25.63 122.698 25.63Z" fill="#4F4F4F"/>
</svg>
