<svg width="148" height="43" viewBox="0 0 148 43" fill="none" xmlns="http://www.w3.org/2000/svg">
<rect width="148" height="43" rx="4" fill="#F2F2F2"/>
<path d="M18.6665 12.6667V15.1667" stroke="#828282" stroke-width="1.5" stroke-miterlimit="10" stroke-linecap="round" stroke-linejoin="round"/>
<path d="M25.3335 12.6667V15.1667" stroke="#828282" stroke-width="1.5" stroke-miterlimit="10" stroke-linecap="round" stroke-linejoin="round"/>
<path d="M14.9165 18.5752H29.0832" stroke="#828282" stroke-width="1.5" stroke-miterlimit="10" stroke-linecap="round" stroke-linejoin="round"/>
<path d="M29.5 18.0834V25.1667C29.5 27.6667 28.25 29.3334 25.3333 29.3334H18.6667C15.75 29.3334 14.5 27.6667 14.5 25.1667V18.0834C14.5 15.5834 15.75 13.9167 18.6667 13.9167H25.3333C28.25 13.9167 29.5 15.5834 29.5 18.0834Z" stroke="#828282" stroke-width="1.5" stroke-miterlimit="10" stroke-linecap="round" stroke-linejoin="round"/>
<path d="M25.0791 22.4167H25.0866" stroke="#828282" stroke-width="2" stroke-linecap="round" stroke-linejoin="round"/>
<path d="M25.0791 24.9167H25.0866" stroke="#828282" stroke-width="2" stroke-linecap="round" stroke-linejoin="round"/>
<path d="M21.9956 22.4167H22.0039" stroke="#828282" stroke-width="2" stroke-linecap="round" stroke-linejoin="round"/>
<path d="M21.9956 24.9167H22.0039" stroke="#828282" stroke-width="2" stroke-linecap="round" stroke-linejoin="round"/>
<path d="M18.9116 22.4167H18.92" stroke="#828282" stroke-width="2" stroke-linecap="round" stroke-linejoin="round"/>
<path d="M18.9116 24.9167H18.92" stroke="#828282" stroke-width="2" stroke-linecap="round" stroke-linejoin="round"/>
<path d="M50.32 23.303C50.138 23.7883 49.878 24.2087 49.54 24.564C49.202 24.9107 48.8033 25.175 48.344 25.357C47.8933 25.539 47.3993 25.63 46.862 25.63C46.0473 25.63 45.341 25.4523 44.743 25.097C44.1537 24.733 43.6943 24.2217 43.365 23.563C43.0443 22.9043 42.884 22.12 42.884 21.21C42.884 20.3 43.0443 19.5157 43.365 18.857C43.6943 18.1983 44.1537 17.6913 44.743 17.336C45.341 16.972 46.0387 16.79 46.836 16.79C47.3907 16.79 47.8847 16.868 48.318 17.024C48.7513 17.1713 49.1197 17.3967 49.423 17.7C49.735 17.9947 49.982 18.3587 50.164 18.792L49.137 19.273C48.9463 18.779 48.669 18.4063 48.305 18.155C47.9497 17.895 47.486 17.765 46.914 17.765C46.3333 17.765 45.822 17.9037 45.38 18.181C44.938 18.4497 44.5913 18.8397 44.34 19.351C44.0973 19.8623 43.976 20.482 43.976 21.21C43.976 21.9293 44.093 22.549 44.327 23.069C44.561 23.5803 44.8947 23.9747 45.328 24.252C45.7613 24.5207 46.2727 24.655 46.862 24.655C47.434 24.655 47.9323 24.512 48.357 24.226C48.7817 23.9313 49.0893 23.4937 49.28 22.913L50.32 23.303ZM51.8611 25.5V16.01H52.9011V19.975C53.1264 19.585 53.4254 19.3033 53.7981 19.13C54.1708 18.9567 54.5781 18.87 55.0201 18.87C55.4881 18.87 55.9128 18.961 56.2941 19.143C56.6754 19.3163 56.9788 19.585 57.2041 19.949C57.4381 20.313 57.5551 20.7767 57.5551 21.34V25.5H56.5151V21.704C56.5151 20.9847 56.3591 20.4863 56.0471 20.209C55.7438 19.923 55.3668 19.78 54.9161 19.78C54.6041 19.78 54.2921 19.8537 53.9801 20.001C53.6681 20.1483 53.4081 20.391 53.2001 20.729C53.0008 21.0583 52.9011 21.5003 52.9011 22.055V25.5H51.8611ZM62.3669 25.63C61.7516 25.63 61.2013 25.4957 60.7159 25.227C60.2393 24.9583 59.8666 24.5727 59.5979 24.07C59.3293 23.5587 59.1949 22.952 59.1949 22.25C59.1949 21.548 59.3293 20.9457 59.5979 20.443C59.8666 19.9317 60.2349 19.5417 60.7029 19.273C61.1709 19.0043 61.7039 18.87 62.3019 18.87C62.9086 18.87 63.4243 19 63.8489 19.26C64.2823 19.52 64.6116 19.8753 64.8369 20.326C65.0623 20.768 65.1749 21.2663 65.1749 21.821C65.1749 21.9683 65.1706 22.1027 65.1619 22.224C65.1533 22.3453 65.1403 22.4537 65.1229 22.549H59.8709V21.626H64.6679L64.1349 21.73C64.1349 21.106 63.9616 20.625 63.6149 20.287C63.2769 19.949 62.8306 19.78 62.2759 19.78C61.8513 19.78 61.4829 19.8797 61.1709 20.079C60.8676 20.2697 60.6293 20.5513 60.4559 20.924C60.2913 21.288 60.2089 21.73 60.2089 22.25C60.2089 22.7613 60.2956 23.2033 60.4689 23.576C60.6423 23.9487 60.8849 24.2347 61.1969 24.434C61.5176 24.6247 61.8989 24.72 62.3409 24.72C62.8176 24.72 63.2033 24.629 63.4979 24.447C63.8013 24.265 64.0439 24.018 64.2259 23.706L65.0449 24.187C64.8803 24.4817 64.6679 24.7373 64.4079 24.954C64.1566 25.1707 63.8576 25.3397 63.5109 25.461C63.1729 25.5737 62.7916 25.63 62.3669 25.63ZM69.5839 18.87C70.0345 18.87 70.4289 18.9393 70.7669 19.078C71.1135 19.2167 71.4125 19.416 71.6639 19.676C71.9152 19.936 72.1189 20.2437 72.2749 20.599L71.2869 21.067C71.1482 20.651 70.9359 20.3347 70.6499 20.118C70.3725 19.8927 70.0085 19.78 69.5579 19.78C69.1245 19.78 68.7519 19.8797 68.4399 20.079C68.1279 20.2697 67.8895 20.5513 67.7249 20.924C67.5602 21.288 67.4779 21.73 67.4779 22.25C67.4779 22.7613 67.5602 23.2033 67.7249 23.576C67.8895 23.9487 68.1279 24.2347 68.4399 24.434C68.7519 24.6247 69.1245 24.72 69.5579 24.72C69.8959 24.72 70.1862 24.668 70.4289 24.564C70.6802 24.46 70.8839 24.3083 71.0399 24.109C71.2045 23.9097 71.3172 23.667 71.3779 23.381L72.3399 23.719C72.1925 24.1177 71.9889 24.46 71.7289 24.746C71.4775 25.032 71.1699 25.253 70.8059 25.409C70.4505 25.5563 70.0432 25.63 69.5839 25.63C68.9772 25.63 68.4355 25.4957 67.9589 25.227C67.4822 24.9583 67.1095 24.5727 66.8409 24.07C66.5722 23.5587 66.4379 22.952 66.4379 22.25C66.4379 21.548 66.5722 20.9457 66.8409 20.443C67.1095 19.9317 67.4822 19.5417 67.9589 19.273C68.4355 19.0043 68.9772 18.87 69.5839 18.87ZM79.6143 19L76.8063 21.808L76.5593 22.055L74.4273 24.187V22.887L78.3013 19H79.6143ZM74.9473 16.01V25.5H73.9073V16.01H74.9473ZM76.8973 21.275L79.7703 25.5H78.5093L76.0263 21.86L76.8973 21.275ZM87.5929 18.87C88.2083 18.87 88.7499 19.0043 89.2179 19.273C89.6946 19.5417 90.0673 19.9317 90.3359 20.443C90.6046 20.9457 90.7389 21.548 90.7389 22.25C90.7389 22.952 90.6046 23.5587 90.3359 24.07C90.0673 24.5727 89.6946 24.9583 89.2179 25.227C88.7499 25.4957 88.2083 25.63 87.5929 25.63C86.9863 25.63 86.4446 25.4957 85.9679 25.227C85.4913 24.9583 85.1186 24.5727 84.8499 24.07C84.5813 23.5587 84.4469 22.952 84.4469 22.25C84.4469 21.548 84.5813 20.9457 84.8499 20.443C85.1186 19.9317 85.4913 19.5417 85.9679 19.273C86.4446 19.0043 86.9863 18.87 87.5929 18.87ZM87.5929 19.767C87.1509 19.767 86.7739 19.8667 86.4619 20.066C86.1499 20.2653 85.9073 20.5513 85.7339 20.924C85.5693 21.288 85.4869 21.73 85.4869 22.25C85.4869 22.7613 85.5693 23.2033 85.7339 23.576C85.9073 23.9487 86.1499 24.2347 86.4619 24.434C86.7739 24.6333 87.1509 24.733 87.5929 24.733C88.0349 24.733 88.4119 24.6333 88.7239 24.434C89.0359 24.2347 89.2743 23.9487 89.4389 23.576C89.6123 23.2033 89.6989 22.7613 89.6989 22.25C89.6989 21.73 89.6123 21.288 89.4389 20.924C89.2743 20.5513 89.0359 20.2653 88.7239 20.066C88.4119 19.8667 88.0349 19.767 87.5929 19.767ZM94.7899 25.63C94.3739 25.63 93.9795 25.552 93.6069 25.396C93.2429 25.24 92.9439 24.9887 92.7099 24.642C92.4845 24.2867 92.3719 23.8273 92.3719 23.264V19H93.4119V22.991C93.4119 23.6497 93.5549 24.1047 93.8409 24.356C94.1269 24.5987 94.5299 24.72 95.0499 24.72C95.2925 24.72 95.5309 24.681 95.7649 24.603C95.9989 24.5163 96.2069 24.3863 96.3889 24.213C96.5795 24.031 96.7269 23.8013 96.8309 23.524C96.9435 23.2467 96.9999 22.9173 96.9999 22.536V19H98.0399V25.5H97.1299L97.0649 24.512C96.8395 24.902 96.5319 25.188 96.1419 25.37C95.7605 25.5433 95.3099 25.63 94.7899 25.63ZM101.734 17.154V23.706C101.734 24.0267 101.825 24.265 102.007 24.421C102.189 24.577 102.423 24.655 102.709 24.655C102.961 24.655 103.177 24.6117 103.359 24.525C103.541 24.4383 103.706 24.3213 103.853 24.174L104.217 25.045C104.018 25.227 103.78 25.37 103.502 25.474C103.234 25.578 102.922 25.63 102.566 25.63C102.237 25.63 101.929 25.5737 101.643 25.461C101.357 25.3397 101.128 25.1533 100.954 24.902C100.79 24.642 100.703 24.304 100.694 23.888V17.44L101.734 17.154ZM104.1 19V19.897H99.3943V19H104.1ZM112.092 25.63C111.555 25.63 111.061 25.4957 110.61 25.227C110.16 24.9583 109.8 24.5727 109.531 24.07C109.263 23.5587 109.128 22.952 109.128 22.25C109.128 21.5307 109.271 20.9197 109.557 20.417C109.843 19.9143 110.22 19.533 110.688 19.273C111.156 19.0043 111.659 18.87 112.196 18.87C112.734 18.87 113.197 19.0087 113.587 19.286C113.986 19.5633 114.25 19.9317 114.38 20.391L114.25 20.482V16.01H115.29V25.5H114.38L114.289 23.927L114.432 23.849C114.372 24.2303 114.224 24.5553 113.99 24.824C113.765 25.084 113.483 25.2833 113.145 25.422C112.816 25.5607 112.465 25.63 112.092 25.63ZM112.196 24.72C112.612 24.72 112.972 24.616 113.275 24.408C113.587 24.2 113.826 23.9053 113.99 23.524C114.164 23.134 114.25 22.679 114.25 22.159C114.25 21.665 114.164 21.2403 113.99 20.885C113.826 20.5297 113.592 20.2567 113.288 20.066C112.994 19.8753 112.647 19.78 112.248 19.78C111.59 19.78 111.078 20.0053 110.714 20.456C110.35 20.9067 110.168 21.5047 110.168 22.25C110.168 22.9953 110.346 23.5933 110.701 24.044C111.057 24.4947 111.555 24.72 112.196 24.72ZM121.244 21.301C121.244 20.8157 121.114 20.443 120.854 20.183C120.594 19.9143 120.225 19.78 119.749 19.78C119.298 19.78 118.917 19.8797 118.605 20.079C118.293 20.2697 118.063 20.5817 117.916 21.015L117.071 20.495C117.244 20.0097 117.565 19.6197 118.033 19.325C118.501 19.0217 119.081 18.87 119.775 18.87C120.243 18.87 120.667 18.9523 121.049 19.117C121.43 19.273 121.729 19.5157 121.946 19.845C122.171 20.1657 122.284 20.5817 122.284 21.093V24.239C122.284 24.551 122.448 24.707 122.778 24.707C122.942 24.707 123.103 24.6853 123.259 24.642L123.207 25.461C123.033 25.5477 122.808 25.591 122.531 25.591C122.279 25.591 122.054 25.5433 121.855 25.448C121.655 25.3527 121.499 25.2097 121.387 25.019C121.274 24.8197 121.218 24.5727 121.218 24.278V24.148L121.478 24.187C121.374 24.525 121.196 24.8023 120.945 25.019C120.693 25.227 120.412 25.383 120.1 25.487C119.788 25.5823 119.48 25.63 119.177 25.63C118.795 25.63 118.44 25.565 118.111 25.435C117.781 25.305 117.517 25.11 117.318 24.85C117.127 24.5813 117.032 24.252 117.032 23.862C117.032 23.3767 117.192 22.978 117.513 22.666C117.842 22.3453 118.297 22.1287 118.878 22.016L121.452 21.509V22.367L119.359 22.796C118.934 22.8827 118.618 23.004 118.41 23.16C118.202 23.316 118.098 23.5327 118.098 23.81C118.098 24.0787 118.202 24.2997 118.41 24.473C118.626 24.6377 118.93 24.72 119.32 24.72C119.571 24.72 119.809 24.6897 120.035 24.629C120.269 24.5597 120.477 24.46 120.659 24.33C120.841 24.1913 120.984 24.0223 121.088 23.823C121.192 23.615 121.244 23.3723 121.244 23.095V21.301ZM125.831 17.154V23.706C125.831 24.0267 125.922 24.265 126.104 24.421C126.286 24.577 126.52 24.655 126.806 24.655C127.057 24.655 127.274 24.6117 127.456 24.525C127.638 24.4383 127.803 24.3213 127.95 24.174L128.314 25.045C128.115 25.227 127.876 25.37 127.599 25.474C127.33 25.578 127.018 25.63 126.663 25.63C126.334 25.63 126.026 25.5737 125.74 25.461C125.454 25.3397 125.224 25.1533 125.051 24.902C124.886 24.642 124.8 24.304 124.791 23.888V17.44L125.831 17.154ZM128.197 19V19.897H123.491V19H128.197ZM132.2 25.63C131.585 25.63 131.035 25.4957 130.549 25.227C130.073 24.9583 129.7 24.5727 129.431 24.07C129.163 23.5587 129.028 22.952 129.028 22.25C129.028 21.548 129.163 20.9457 129.431 20.443C129.7 19.9317 130.068 19.5417 130.536 19.273C131.004 19.0043 131.537 18.87 132.135 18.87C132.742 18.87 133.258 19 133.682 19.26C134.116 19.52 134.445 19.8753 134.67 20.326C134.896 20.768 135.008 21.2663 135.008 21.821C135.008 21.9683 135.004 22.1027 134.995 22.224C134.987 22.3453 134.974 22.4537 134.956 22.549H129.704V21.626H134.501L133.968 21.73C133.968 21.106 133.795 20.625 133.448 20.287C133.11 19.949 132.664 19.78 132.109 19.78C131.685 19.78 131.316 19.8797 131.004 20.079C130.701 20.2697 130.463 20.5513 130.289 20.924C130.125 21.288 130.042 21.73 130.042 22.25C130.042 22.7613 130.129 23.2033 130.302 23.576C130.476 23.9487 130.718 24.2347 131.03 24.434C131.351 24.6247 131.732 24.72 132.174 24.72C132.651 24.72 133.037 24.629 133.331 24.447C133.635 24.265 133.877 24.018 134.059 23.706L134.878 24.187C134.714 24.4817 134.501 24.7373 134.241 24.954C133.99 25.1707 133.691 25.3397 133.344 25.461C133.006 25.5737 132.625 25.63 132.2 25.63Z" fill="#4F4F4F"/>
</svg>
