<svg width="206" height="43" viewBox="0 0 206 43" fill="none" xmlns="http://www.w3.org/2000/svg">
<rect width="206" height="43" rx="4" fill="#F2F2F2"/>
<path d="M21.9999 22.1917C22.3413 22.1917 22.6794 22.1244 22.9949 21.9938C23.3103 21.8631 23.5969 21.6716 23.8384 21.4302C24.0798 21.1887 24.2713 20.9021 24.402 20.5867C24.5327 20.2712 24.5999 19.9331 24.5999 19.5917C24.5999 19.2503 24.5327 18.9122 24.402 18.5967C24.2713 18.2813 24.0798 17.9947 23.8384 17.7532C23.5969 17.5118 23.3103 17.3203 22.9949 17.1896C22.6794 17.059 22.3413 16.9917 21.9999 16.9917C21.3103 16.9917 20.649 17.2656 20.1614 17.7532C19.6738 18.2408 19.3999 18.9021 19.3999 19.5917C19.3999 20.2813 19.6738 20.9426 20.1614 21.4302C20.649 21.9178 21.3103 22.1917 21.9999 22.1917V22.1917Z" stroke="#828282" stroke-width="1.5"/>
<path d="M15.0167 18.0751C16.6584 10.8584 27.3501 10.8668 28.9834 18.0834C29.9417 22.3168 27.3084 25.9001 25.0001 28.1168C24.1935 28.8947 23.1165 29.3294 21.9959 29.3294C20.8753 29.3294 19.7984 28.8947 18.9917 28.1168C16.6918 25.9001 14.0584 22.3084 15.0167 18.0751V18.0751Z" stroke="#828282" stroke-width="1.5"/>
<path d="M45.003 25.5L42.468 16.92H43.547L45.666 24.551L47.681 16.92H48.864L50.879 24.577L52.998 16.92H54.025L51.503 25.5H50.216L48.695 19.936L48.253 17.999H48.24L47.798 19.936L46.29 25.5H45.003ZM55.4412 25.5V16.01H56.4812V19.975C56.7065 19.585 57.0055 19.3033 57.3782 19.13C57.7509 18.9567 58.1582 18.87 58.6002 18.87C59.0682 18.87 59.4929 18.961 59.8742 19.143C60.2555 19.3163 60.5589 19.585 60.7842 19.949C61.0182 20.313 61.1352 20.7767 61.1352 21.34V25.5H60.0952V21.704C60.0952 20.9847 59.9392 20.4863 59.6272 20.209C59.3239 19.923 58.9469 19.78 58.4962 19.78C58.1842 19.78 57.8722 19.8537 57.5602 20.001C57.2482 20.1483 56.9882 20.391 56.7802 20.729C56.5809 21.0583 56.4812 21.5003 56.4812 22.055V25.5H55.4412ZM65.947 25.63C65.3317 25.63 64.7813 25.4957 64.296 25.227C63.8193 24.9583 63.4467 24.5727 63.178 24.07C62.9093 23.5587 62.775 22.952 62.775 22.25C62.775 21.548 62.9093 20.9457 63.178 20.443C63.4467 19.9317 63.815 19.5417 64.283 19.273C64.751 19.0043 65.284 18.87 65.882 18.87C66.4887 18.87 67.0043 19 67.429 19.26C67.8623 19.52 68.1917 19.8753 68.417 20.326C68.6423 20.768 68.755 21.2663 68.755 21.821C68.755 21.9683 68.7507 22.1027 68.742 22.224C68.7333 22.3453 68.7203 22.4537 68.703 22.549H63.451V21.626H68.248L67.715 21.73C67.715 21.106 67.5417 20.625 67.195 20.287C66.857 19.949 66.4107 19.78 65.856 19.78C65.4313 19.78 65.063 19.8797 64.751 20.079C64.4477 20.2697 64.2093 20.5513 64.036 20.924C63.8713 21.288 63.789 21.73 63.789 22.25C63.789 22.7613 63.8757 23.2033 64.049 23.576C64.2223 23.9487 64.465 24.2347 64.777 24.434C65.0977 24.6247 65.479 24.72 65.921 24.72C66.3977 24.72 66.7833 24.629 67.078 24.447C67.3813 24.265 67.624 24.018 67.806 23.706L68.625 24.187C68.4603 24.4817 68.248 24.7373 67.988 24.954C67.7367 25.1707 67.4377 25.3397 67.091 25.461C66.753 25.5737 66.3717 25.63 65.947 25.63ZM70.4729 25.5V19H71.3179L71.4609 20.066C71.6429 19.6673 71.9073 19.3683 72.2539 19.169C72.6093 18.9697 73.0383 18.87 73.5409 18.87C73.6536 18.87 73.7749 18.8787 73.9049 18.896C74.0436 18.9133 74.1606 18.948 74.2559 19L74.0739 19.949C73.9786 19.9143 73.8746 19.8883 73.7619 19.871C73.6493 19.8537 73.4889 19.845 73.2809 19.845C73.0123 19.845 72.7393 19.923 72.4619 20.079C72.1933 20.235 71.9679 20.4733 71.7859 20.794C71.6039 21.106 71.5129 21.5047 71.5129 21.99V25.5H70.4729ZM78.0335 25.63C77.4181 25.63 76.8678 25.4957 76.3825 25.227C75.9058 24.9583 75.5331 24.5727 75.2645 24.07C74.9958 23.5587 74.8615 22.952 74.8615 22.25C74.8615 21.548 74.9958 20.9457 75.2645 20.443C75.5331 19.9317 75.9015 19.5417 76.3695 19.273C76.8375 19.0043 77.3705 18.87 77.9685 18.87C78.5751 18.87 79.0908 19 79.5155 19.26C79.9488 19.52 80.2781 19.8753 80.5035 20.326C80.7288 20.768 80.8415 21.2663 80.8415 21.821C80.8415 21.9683 80.8371 22.1027 80.8285 22.224C80.8198 22.3453 80.8068 22.4537 80.7895 22.549H75.5375V21.626H80.3345L79.8015 21.73C79.8015 21.106 79.6281 20.625 79.2815 20.287C78.9435 19.949 78.4971 19.78 77.9425 19.78C77.5178 19.78 77.1495 19.8797 76.8375 20.079C76.5341 20.2697 76.2958 20.5513 76.1225 20.924C75.9578 21.288 75.8755 21.73 75.8755 22.25C75.8755 22.7613 75.9621 23.2033 76.1355 23.576C76.3088 23.9487 76.5515 24.2347 76.8635 24.434C77.1841 24.6247 77.5655 24.72 78.0075 24.72C78.4841 24.72 78.8698 24.629 79.1645 24.447C79.4678 24.265 79.7105 24.018 79.8925 23.706L80.7115 24.187C80.5468 24.4817 80.3345 24.7373 80.0745 24.954C79.8231 25.1707 79.5241 25.3397 79.1775 25.461C78.8395 25.5737 78.4581 25.63 78.0335 25.63ZM90.5261 21.301C90.5261 20.8157 90.3961 20.443 90.1361 20.183C89.8761 19.9143 89.5077 19.78 89.0311 19.78C88.5804 19.78 88.1991 19.8797 87.8871 20.079C87.5751 20.2697 87.3454 20.5817 87.1981 21.015L86.3531 20.495C86.5264 20.0097 86.8471 19.6197 87.3151 19.325C87.7831 19.0217 88.3637 18.87 89.0571 18.87C89.5251 18.87 89.9497 18.9523 90.3311 19.117C90.7124 19.273 91.0114 19.5157 91.2281 19.845C91.4534 20.1657 91.5661 20.5817 91.5661 21.093V24.239C91.5661 24.551 91.7307 24.707 92.0601 24.707C92.2247 24.707 92.3851 24.6853 92.5411 24.642L92.4891 25.461C92.3157 25.5477 92.0904 25.591 91.8131 25.591C91.5617 25.591 91.3364 25.5433 91.1371 25.448C90.9377 25.3527 90.7817 25.2097 90.6691 25.019C90.5564 24.8197 90.5001 24.5727 90.5001 24.278V24.148L90.7601 24.187C90.6561 24.525 90.4784 24.8023 90.2271 25.019C89.9757 25.227 89.6941 25.383 89.3821 25.487C89.0701 25.5823 88.7624 25.63 88.4591 25.63C88.0777 25.63 87.7224 25.565 87.3931 25.435C87.0637 25.305 86.7994 25.11 86.6001 24.85C86.4094 24.5813 86.3141 24.252 86.3141 23.862C86.3141 23.3767 86.4744 22.978 86.7951 22.666C87.1244 22.3453 87.5794 22.1287 88.1601 22.016L90.7341 21.509V22.367L88.6411 22.796C88.2164 22.8827 87.9001 23.004 87.6921 23.16C87.4841 23.316 87.3801 23.5327 87.3801 23.81C87.3801 24.0787 87.4841 24.2997 87.6921 24.473C87.9087 24.6377 88.2121 24.72 88.6021 24.72C88.8534 24.72 89.0917 24.6897 89.3171 24.629C89.5511 24.5597 89.7591 24.46 89.9411 24.33C90.1231 24.1913 90.2661 24.0223 90.3701 23.823C90.4741 23.615 90.5261 23.3723 90.5261 23.095V21.301ZM93.8333 25.5V19H94.6783L94.8213 20.066C95.0033 19.6673 95.2677 19.3683 95.6143 19.169C95.9697 18.9697 96.3987 18.87 96.9013 18.87C97.014 18.87 97.1353 18.8787 97.2653 18.896C97.404 18.9133 97.521 18.948 97.6163 19L97.4343 19.949C97.339 19.9143 97.235 19.8883 97.1223 19.871C97.0097 19.8537 96.8493 19.845 96.6413 19.845C96.3727 19.845 96.0997 19.923 95.8223 20.079C95.5537 20.235 95.3283 20.4733 95.1463 20.794C94.9643 21.106 94.8733 21.5047 94.8733 21.99V25.5H93.8333ZM101.394 25.63C100.779 25.63 100.228 25.4957 99.7428 25.227C99.2662 24.9583 98.8935 24.5727 98.6248 24.07C98.3562 23.5587 98.2218 22.952 98.2218 22.25C98.2218 21.548 98.3562 20.9457 98.6248 20.443C98.8935 19.9317 99.2618 19.5417 99.7298 19.273C100.198 19.0043 100.731 18.87 101.329 18.87C101.936 18.87 102.451 19 102.876 19.26C103.309 19.52 103.639 19.8753 103.864 20.326C104.089 20.768 104.202 21.2663 104.202 21.821C104.202 21.9683 104.198 22.1027 104.189 22.224C104.18 22.3453 104.167 22.4537 104.15 22.549H98.8978V21.626H103.695L103.162 21.73C103.162 21.106 102.989 20.625 102.642 20.287C102.304 19.949 101.858 19.78 101.303 19.78C100.878 19.78 100.51 19.8797 100.198 20.079C99.8945 20.2697 99.6562 20.5513 99.4828 20.924C99.3182 21.288 99.2358 21.73 99.2358 22.25C99.2358 22.7613 99.3225 23.2033 99.4958 23.576C99.6692 23.9487 99.9118 24.2347 100.224 24.434C100.545 24.6247 100.926 24.72 101.368 24.72C101.845 24.72 102.23 24.629 102.525 24.447C102.828 24.265 103.071 24.018 103.253 23.706L104.072 24.187C103.907 24.4817 103.695 24.7373 103.435 24.954C103.184 25.1707 102.885 25.3397 102.538 25.461C102.2 25.5737 101.819 25.63 101.394 25.63ZM115.103 19L112.048 26.592C111.884 27.0167 111.702 27.3503 111.502 27.593C111.312 27.8443 111.095 28.022 110.852 28.126C110.618 28.2387 110.345 28.295 110.033 28.295C109.739 28.295 109.466 28.2517 109.214 28.165C108.972 28.087 108.755 27.9787 108.564 27.84L108.85 26.93C109.024 27.086 109.206 27.1987 109.396 27.268C109.596 27.346 109.791 27.385 109.981 27.385C110.207 27.385 110.419 27.3157 110.618 27.177C110.818 27.0383 111 26.7567 111.164 26.332L111.502 25.487L110.852 23.94L108.785 19H109.968L111.593 23.238L111.996 24.395L112.464 23.108L113.985 19H115.103ZM118.894 18.87C119.51 18.87 120.051 19.0043 120.519 19.273C120.996 19.5417 121.369 19.9317 121.637 20.443C121.906 20.9457 122.04 21.548 122.04 22.25C122.04 22.952 121.906 23.5587 121.637 24.07C121.369 24.5727 120.996 24.9583 120.519 25.227C120.051 25.4957 119.51 25.63 118.894 25.63C118.288 25.63 117.746 25.4957 117.269 25.227C116.793 24.9583 116.42 24.5727 116.151 24.07C115.883 23.5587 115.748 22.952 115.748 22.25C115.748 21.548 115.883 20.9457 116.151 20.443C116.42 19.9317 116.793 19.5417 117.269 19.273C117.746 19.0043 118.288 18.87 118.894 18.87ZM118.894 19.767C118.452 19.767 118.075 19.8667 117.763 20.066C117.451 20.2653 117.209 20.5513 117.035 20.924C116.871 21.288 116.788 21.73 116.788 22.25C116.788 22.7613 116.871 23.2033 117.035 23.576C117.209 23.9487 117.451 24.2347 117.763 24.434C118.075 24.6333 118.452 24.733 118.894 24.733C119.336 24.733 119.713 24.6333 120.025 24.434C120.337 24.2347 120.576 23.9487 120.74 23.576C120.914 23.2033 121 22.7613 121 22.25C121 21.73 120.914 21.288 120.74 20.924C120.576 20.5513 120.337 20.2653 120.025 20.066C119.713 19.8667 119.336 19.767 118.894 19.767ZM126.091 25.63C125.675 25.63 125.281 25.552 124.908 25.396C124.544 25.24 124.245 24.9887 124.011 24.642C123.786 24.2867 123.673 23.8273 123.673 23.264V19H124.713V22.991C124.713 23.6497 124.856 24.1047 125.142 24.356C125.428 24.5987 125.831 24.72 126.351 24.72C126.594 24.72 126.832 24.681 127.066 24.603C127.3 24.5163 127.508 24.3863 127.69 24.213C127.881 24.031 128.028 23.8013 128.132 23.524C128.245 23.2467 128.301 22.9173 128.301 22.536V19H129.341V25.5H128.431L128.366 24.512C128.141 24.902 127.833 25.188 127.443 25.37C127.062 25.5433 126.611 25.63 126.091 25.63ZM141.146 17.804L141.38 18.727C141.371 18.727 141.358 18.727 141.341 18.727C141.323 18.727 141.306 18.727 141.289 18.727C140.864 18.727 140.535 18.8137 140.301 18.987C140.075 19.1517 139.963 19.4203 139.963 19.793L139.326 19.468C139.326 19.13 139.404 18.8353 139.56 18.584C139.716 18.3327 139.928 18.142 140.197 18.012C140.465 17.8733 140.76 17.804 141.081 17.804C141.089 17.804 141.098 17.804 141.107 17.804C141.124 17.804 141.137 17.804 141.146 17.804ZM139.17 24.668C139.785 24.668 140.266 24.811 140.613 25.097C140.959 25.3743 141.133 25.747 141.133 26.215C141.133 26.6397 140.99 27.008 140.704 27.32C140.426 27.632 140.049 27.8703 139.573 28.035C139.105 28.2083 138.576 28.295 137.987 28.295C136.964 28.295 136.197 28.1217 135.686 27.775C135.183 27.4283 134.932 27.0123 134.932 26.527C134.932 26.1803 135.044 25.8683 135.27 25.591C135.504 25.3223 135.894 25.1707 136.44 25.136L136.349 25.331C136.054 25.253 135.803 25.123 135.595 24.941C135.395 24.7503 135.296 24.4773 135.296 24.122C135.296 23.7667 135.426 23.4633 135.686 23.212C135.954 22.952 136.349 22.7917 136.869 22.731L137.558 23.082H137.428C137.003 23.1253 136.7 23.2337 136.518 23.407C136.344 23.5717 136.258 23.7537 136.258 23.953C136.258 24.1957 136.344 24.3777 136.518 24.499C136.7 24.6117 136.951 24.668 137.272 24.668H139.17ZM137.974 27.424C138.476 27.424 138.888 27.372 139.209 27.268C139.538 27.164 139.781 27.0297 139.937 26.865C140.093 26.7003 140.171 26.5227 140.171 26.332C140.171 26.098 140.075 25.9117 139.885 25.773C139.703 25.6343 139.369 25.565 138.884 25.565H136.882C136.604 25.565 136.37 25.6343 136.18 25.773C135.989 25.9203 135.894 26.1197 135.894 26.371C135.894 26.6917 136.076 26.9473 136.44 27.138C136.812 27.3287 137.324 27.424 137.974 27.424ZM137.883 18.87C138.403 18.87 138.862 18.9653 139.261 19.156C139.668 19.338 139.984 19.5937 140.21 19.923C140.435 20.2523 140.548 20.6337 140.548 21.067C140.548 21.4917 140.435 21.873 140.21 22.211C139.984 22.5403 139.668 22.8003 139.261 22.991C138.862 23.173 138.403 23.264 137.883 23.264C137.025 23.264 136.366 23.0603 135.907 22.653C135.447 22.237 135.218 21.7083 135.218 21.067C135.218 20.6337 135.33 20.2523 135.556 19.923C135.79 19.5937 136.106 19.338 136.505 19.156C136.903 18.9653 137.363 18.87 137.883 18.87ZM137.883 19.715C137.432 19.715 137.055 19.8407 136.752 20.092C136.448 20.3347 136.297 20.6597 136.297 21.067C136.297 21.4657 136.448 21.7907 136.752 22.042C137.055 22.2933 137.432 22.419 137.883 22.419C138.333 22.419 138.71 22.2933 139.014 22.042C139.317 21.7907 139.469 21.4657 139.469 21.067C139.469 20.6597 139.317 20.3347 139.014 20.092C138.71 19.8407 138.333 19.715 137.883 19.715ZM145.022 18.87C145.638 18.87 146.179 19.0043 146.647 19.273C147.124 19.5417 147.497 19.9317 147.765 20.443C148.034 20.9457 148.168 21.548 148.168 22.25C148.168 22.952 148.034 23.5587 147.765 24.07C147.497 24.5727 147.124 24.9583 146.647 25.227C146.179 25.4957 145.638 25.63 145.022 25.63C144.416 25.63 143.874 25.4957 143.397 25.227C142.921 24.9583 142.548 24.5727 142.279 24.07C142.011 23.5587 141.876 22.952 141.876 22.25C141.876 21.548 142.011 20.9457 142.279 20.443C142.548 19.9317 142.921 19.5417 143.397 19.273C143.874 19.0043 144.416 18.87 145.022 18.87ZM145.022 19.767C144.58 19.767 144.203 19.8667 143.891 20.066C143.579 20.2653 143.337 20.5513 143.163 20.924C142.999 21.288 142.916 21.73 142.916 22.25C142.916 22.7613 142.999 23.2033 143.163 23.576C143.337 23.9487 143.579 24.2347 143.891 24.434C144.203 24.6333 144.58 24.733 145.022 24.733C145.464 24.733 145.841 24.6333 146.153 24.434C146.465 24.2347 146.704 23.9487 146.868 23.576C147.042 23.2033 147.128 22.7613 147.128 22.25C147.128 21.73 147.042 21.288 146.868 20.924C146.704 20.5513 146.465 20.2653 146.153 20.066C145.841 19.8667 145.464 19.767 145.022 19.767ZM150.386 17.752C150.152 17.752 149.962 17.6827 149.814 17.544C149.676 17.3967 149.606 17.206 149.606 16.972C149.606 16.738 149.676 16.5517 149.814 16.413C149.962 16.2657 150.152 16.192 150.386 16.192C150.62 16.192 150.807 16.2657 150.945 16.413C151.093 16.5517 151.166 16.738 151.166 16.972C151.166 17.206 151.093 17.3967 150.945 17.544C150.807 17.6827 150.62 17.752 150.386 17.752ZM150.906 19V25.5H149.866V19H150.906ZM153.06 25.5V19H153.97L154.061 20.456L153.892 20.313C154.03 19.9663 154.217 19.689 154.451 19.481C154.685 19.2643 154.953 19.1083 155.257 19.013C155.569 18.9177 155.889 18.87 156.219 18.87C156.687 18.87 157.111 18.961 157.493 19.143C157.874 19.3163 158.177 19.585 158.403 19.949C158.637 20.313 158.754 20.7767 158.754 21.34V25.5H157.714V21.704C157.714 20.9847 157.558 20.4863 157.246 20.209C156.942 19.923 156.565 19.78 156.115 19.78C155.803 19.78 155.491 19.8537 155.179 20.001C154.867 20.1483 154.607 20.3867 154.399 20.716C154.199 21.0453 154.1 21.4873 154.1 22.042V25.5H153.06ZM166.321 17.804L166.555 18.727C166.547 18.727 166.534 18.727 166.516 18.727C166.499 18.727 166.482 18.727 166.464 18.727C166.04 18.727 165.71 18.8137 165.476 18.987C165.251 19.1517 165.138 19.4203 165.138 19.793L164.501 19.468C164.501 19.13 164.579 18.8353 164.735 18.584C164.891 18.3327 165.104 18.142 165.372 18.012C165.641 17.8733 165.936 17.804 166.256 17.804C166.265 17.804 166.274 17.804 166.282 17.804C166.3 17.804 166.313 17.804 166.321 17.804ZM164.345 24.668C164.961 24.668 165.442 24.811 165.788 25.097C166.135 25.3743 166.308 25.747 166.308 26.215C166.308 26.6397 166.165 27.008 165.879 27.32C165.602 27.632 165.225 27.8703 164.748 28.035C164.28 28.2083 163.752 28.295 163.162 28.295C162.14 28.295 161.373 28.1217 160.861 27.775C160.359 27.4283 160.107 27.0123 160.107 26.527C160.107 26.1803 160.22 25.8683 160.445 25.591C160.679 25.3223 161.069 25.1707 161.615 25.136L161.524 25.331C161.23 25.253 160.978 25.123 160.77 24.941C160.571 24.7503 160.471 24.4773 160.471 24.122C160.471 23.7667 160.601 23.4633 160.861 23.212C161.13 22.952 161.524 22.7917 162.044 22.731L162.733 23.082H162.603C162.179 23.1253 161.875 23.2337 161.693 23.407C161.52 23.5717 161.433 23.7537 161.433 23.953C161.433 24.1957 161.52 24.3777 161.693 24.499C161.875 24.6117 162.127 24.668 162.447 24.668H164.345ZM163.149 27.424C163.652 27.424 164.064 27.372 164.384 27.268C164.714 27.164 164.956 27.0297 165.112 26.865C165.268 26.7003 165.346 26.5227 165.346 26.332C165.346 26.098 165.251 25.9117 165.06 25.773C164.878 25.6343 164.545 25.565 164.059 25.565H162.057C161.78 25.565 161.546 25.6343 161.355 25.773C161.165 25.9203 161.069 26.1197 161.069 26.371C161.069 26.6917 161.251 26.9473 161.615 27.138C161.988 27.3287 162.499 27.424 163.149 27.424ZM163.058 18.87C163.578 18.87 164.038 18.9653 164.436 19.156C164.844 19.338 165.16 19.5937 165.385 19.923C165.611 20.2523 165.723 20.6337 165.723 21.067C165.723 21.4917 165.611 21.873 165.385 22.211C165.16 22.5403 164.844 22.8003 164.436 22.991C164.038 23.173 163.578 23.264 163.058 23.264C162.2 23.264 161.542 23.0603 161.082 22.653C160.623 22.237 160.393 21.7083 160.393 21.067C160.393 20.6337 160.506 20.2523 160.731 19.923C160.965 19.5937 161.282 19.338 161.68 19.156C162.079 18.9653 162.538 18.87 163.058 18.87ZM163.058 19.715C162.608 19.715 162.231 19.8407 161.927 20.092C161.624 20.3347 161.472 20.6597 161.472 21.067C161.472 21.4657 161.624 21.7907 161.927 22.042C162.231 22.2933 162.608 22.419 163.058 22.419C163.509 22.419 163.886 22.2933 164.189 22.042C164.493 21.7907 164.644 21.4657 164.644 21.067C164.644 20.6597 164.493 20.3347 164.189 20.092C163.886 19.8407 163.509 19.715 163.058 19.715ZM169.847 16.79C170.419 16.79 170.918 16.881 171.342 17.063C171.767 17.245 172.096 17.505 172.33 17.843C172.573 18.181 172.694 18.584 172.694 19.052C172.694 19.5547 172.582 19.975 172.356 20.313C172.14 20.6423 171.845 20.8937 171.472 21.067C171.108 21.2403 170.701 21.353 170.25 21.405V22.796H169.171V20.846C169.804 20.7507 170.294 20.6337 170.64 20.495C170.996 20.3563 171.243 20.183 171.381 19.975C171.529 19.767 171.602 19.5113 171.602 19.208C171.602 18.9047 171.533 18.6447 171.394 18.428C171.264 18.2113 171.065 18.0467 170.796 17.934C170.528 17.8213 170.185 17.765 169.769 17.765C169.197 17.765 168.729 17.9253 168.365 18.246C168.01 18.558 167.798 18.987 167.728 19.533L166.805 19C166.901 18.558 167.083 18.1723 167.351 17.843C167.629 17.505 167.975 17.245 168.391 17.063C168.816 16.881 169.301 16.79 169.847 16.79ZM169.691 23.94C169.943 23.94 170.146 24.018 170.302 24.174C170.458 24.33 170.536 24.5337 170.536 24.785C170.536 25.0363 170.458 25.24 170.302 25.396C170.146 25.552 169.943 25.63 169.691 25.63C169.44 25.63 169.236 25.552 169.08 25.396C168.924 25.24 168.846 25.0363 168.846 24.785C168.846 24.5337 168.924 24.33 169.08 24.174C169.236 24.018 169.44 23.94 169.691 23.94Z" fill="#4F4F4F"/>
</svg>
